<?xml version="1.0" encoding="iso-8859-1"?>
<!-- Generator: Adobe Illustrator 19.0.0, SVG Export Plug-In . SVG Version: 6.00 Build 0)  -->
<svg version="1.1" id="Capa_1" xmlns="http://www.w3.org/2000/svg" xmlns:xlink="http://www.w3.org/1999/xlink" x="0px" y="0px"
	 viewBox="0 0 512 512" style="enable-background:new 0 0 512 512;" xml:space="preserve">
<g>
	<path style="fill:#235087;" d="M512,180.966h-17.655v-79.448H476.69V83.862h26.483c4.873,0,8.828,3.955,8.828,8.828V180.966z"/>
	<path style="fill:#235087;" d="M423.724,83.862v-8.828c0-14.627,11.855-26.483,26.483-26.483l0,0
		c14.627,0,26.483,11.855,26.483,26.483v8.828H423.724z"/>
	<path style="fill:#235087;" d="M448.689,453.102l1.518,1.518l1.518-1.518c15.987-15.987,24.964-37.667,24.964-60.275h-52.966
		C423.724,415.435,432.702,437.116,448.689,453.102z"/>
</g>
<rect x="423.724" y="83.862" style="fill:#4DB5FF;" width="52.966" height="308.966"/>
<rect y="4.414" style="fill:#B7E5FF;" width="388.414" height="503.172"/>
<g>
	<path style="fill:#6B778A;" d="M353.103,242.759H35.31c-4.873,0-8.828-3.955-8.828-8.828c0-4.873,3.955-8.828,8.828-8.828h317.793
		c4.873,0,8.828,3.955,8.828,8.828C361.931,238.804,357.976,242.759,353.103,242.759z"/>
	<path style="fill:#6B778A;" d="M353.103,278.069h-52.966c-4.873,0-8.828-3.955-8.828-8.828c0-4.873,3.955-8.828,8.828-8.828h52.966
		c4.873,0,8.828,3.955,8.828,8.828C361.931,274.114,357.976,278.069,353.103,278.069z"/>
	<path style="fill:#6B778A;" d="M353.103,313.379H194.207c-4.873,0-8.828-3.955-8.828-8.828s3.955-8.828,8.828-8.828h158.897
		c4.873,0,8.828,3.955,8.828,8.828S357.976,313.379,353.103,313.379z"/>
	<path style="fill:#6B778A;" d="M353.103,348.69h-35.31c-4.873,0-8.828-3.955-8.828-8.828c0-4.873,3.955-8.828,8.828-8.828h35.31
		c4.873,0,8.828,3.955,8.828,8.828C361.931,344.735,357.976,348.69,353.103,348.69z"/>
	<path style="fill:#6B778A;" d="M282.483,348.69H114.759c-4.873,0-8.828-3.955-8.828-8.828c0-4.873,3.955-8.828,8.828-8.828h167.724
		c4.873,0,8.828,3.955,8.828,8.828C291.31,344.735,287.356,348.69,282.483,348.69z"/>
	<path style="fill:#6B778A;" d="M229.517,384H35.31c-4.873,0-8.828-3.955-8.828-8.828c0-4.873,3.955-8.828,8.828-8.828h194.207
		c4.873,0,8.828,3.955,8.828,8.828C238.345,380.045,234.39,384,229.517,384z"/>
</g>
<path style="fill:#8994A3;" d="M238.345,101.517h-88.276c-4.873,0-8.828-3.955-8.828-8.828c0-4.873,3.955-8.828,8.828-8.828h88.276
	c4.873,0,8.828,3.955,8.828,8.828C247.172,97.562,243.218,101.517,238.345,101.517z"/>
<g>
	<path style="fill:#6B778A;" d="M123.586,207.448H70.621c-4.873,0-8.828-3.955-8.828-8.828c0-4.873,3.955-8.828,8.828-8.828h52.966
		c4.873,0,8.828,3.955,8.828,8.828C132.414,203.494,128.459,207.448,123.586,207.448z"/>
	<path style="fill:#6B778A;" d="M353.103,207.448H158.897c-4.873,0-8.828-3.955-8.828-8.828c0-4.873,3.955-8.828,8.828-8.828
		h194.207c4.873,0,8.828,3.955,8.828,8.828C361.931,203.494,357.976,207.448,353.103,207.448z"/>
	<path style="fill:#6B778A;" d="M264.828,278.069H35.31c-4.873,0-8.828-3.955-8.828-8.828c0-4.873,3.955-8.828,8.828-8.828h229.517
		c4.873,0,8.828,3.955,8.828,8.828C273.655,274.114,269.7,278.069,264.828,278.069z"/>
	<path style="fill:#6B778A;" d="M158.897,313.379H35.31c-4.873,0-8.828-3.955-8.828-8.828s3.955-8.828,8.828-8.828h123.586
		c4.873,0,8.828,3.955,8.828,8.828S163.769,313.379,158.897,313.379z"/>
	<path style="fill:#6B778A;" d="M79.448,348.69H35.31c-4.873,0-8.828-3.955-8.828-8.828c0-4.873,3.955-8.828,8.828-8.828h44.138
		c4.873,0,8.828,3.955,8.828,8.828C88.276,344.735,84.321,348.69,79.448,348.69z"/>
</g>
<g>
	<path style="fill:#8994A3;" d="M273.655,66.207H114.759c-4.873,0-8.828-3.955-8.828-8.828s3.955-8.828,8.828-8.828h158.897
		c4.873,0,8.828,3.955,8.828,8.828S278.528,66.207,273.655,66.207z"/>
	<path style="fill:#8994A3;" d="M353.103,154.483H247.172c-4.873,0-8.828-3.955-8.828-8.828c0-4.873,3.955-8.828,8.828-8.828
		h105.931c4.873,0,8.828,3.955,8.828,8.828C361.931,150.528,357.976,154.483,353.103,154.483z"/>
</g>
<path style="fill:#99C8E0;" d="M349.06,225.103h4.043c4.873,0,8.828,3.955,8.828,8.828c0,4.873-3.955,8.828-8.828,8.828h-15.89
	c-4.211,5.985-8.554,11.873-13.012,17.655h28.902c4.873,0,8.828,3.955,8.828,8.828c0,4.873-3.955,8.828-8.828,8.828h-43.255
	c-5.129,6.02-10.399,11.908-15.828,17.655h59.083c4.873,0,8.828,3.955,8.828,8.828s-3.955,8.828-8.828,8.828h-76.553
	c-6.329,6.065-12.826,11.944-19.482,17.655h25.415c4.873,0,8.828,3.955,8.828,8.828c0,4.873-3.955,8.828-8.828,8.828h-47.183
	c-8.068,6.144-16.34,12.032-24.806,17.655h19.023c4.873,0,8.828,3.955,8.828,8.828c0,4.873-3.955,8.828-8.828,8.828h-47.854
	C125.731,415.735,63.921,435.738,0,442.792v64.794h388.414v-358.4C377.6,175.625,364.429,201.031,349.06,225.103z M353.103,348.69
	h-35.31c-4.873,0-8.828-3.955-8.828-8.828c0-4.873,3.955-8.828,8.828-8.828h35.31c4.873,0,8.828,3.955,8.828,8.828
	C361.931,344.735,357.976,348.69,353.103,348.69z"/>
<g>
	<path style="fill:#535B6D;" d="M353.103,242.759c4.873,0,8.828-3.955,8.828-8.828c0-4.873-3.955-8.828-8.828-8.828h-4.043
		c-3.814,5.976-7.751,11.855-11.82,17.655H353.103z"/>
	<path style="fill:#535B6D;" d="M353.103,278.069c4.873,0,8.828-3.955,8.828-8.828c0-4.873-3.955-8.828-8.828-8.828h-28.875
		c-4.643,6.003-9.419,11.891-14.336,17.655H353.103z"/>
	<path style="fill:#535B6D;" d="M276.551,313.379h76.553c4.873,0,8.828-3.955,8.828-8.828s-3.955-8.828-8.828-8.828h-59.039
		C288.38,301.762,282.545,307.65,276.551,313.379z"/>
	<path style="fill:#535B6D;" d="M353.103,331.034h-35.31c-4.873,0-8.828,3.955-8.828,8.828c0,4.873,3.955,8.828,8.828,8.828h35.31
		c4.873,0,8.828-3.955,8.828-8.828C361.931,334.989,357.976,331.034,353.103,331.034z"/>
	<path style="fill:#535B6D;" d="M282.483,348.69c4.873,0,8.828-3.955,8.828-8.828c0-4.873-3.955-8.828-8.828-8.828h-25.415
		c-7.062,6.082-14.318,11.997-21.769,17.655H282.483z"/>
	<path style="fill:#535B6D;" d="M229.517,384c4.873,0,8.828-3.955,8.828-8.828c0-4.873-3.955-8.828-8.828-8.828h-19.023
		c-9.375,6.232-19.006,12.085-28.831,17.655H229.517z"/>
</g>
<path style="fill:#163768;" d="M426.673,414.694c3.822,14.521,11.414,27.772,22.016,38.409l1.518,1.518l1.518-1.518
	c15.987-15.987,24.964-37.667,24.964-60.275h-26.933C442.854,400.914,435.121,408.241,426.673,414.694z"/>
<path style="fill:#3596D8;" d="M449.757,392.828h26.933v-46.786C470.625,363.14,461.497,378.995,449.757,392.828z"/>
<g>
	<path style="fill:#163768;" d="M476.69,75.034c0.044-14.583-11.741-26.439-26.324-26.483c-8.324-0.026-16.172,3.875-21.177,10.531
		c17.24,2.948,33.527,9.984,47.501,20.515V75.034z"/>
	<path style="fill:#163768;" d="M500.401,83.862H476.69v17.655h7.141C487.927,94.438,493.594,88.399,500.401,83.862z"/>
</g>
<path style="fill:#8994A3;" d="M344.276,454.621H220.69c-4.873,0-8.828-3.955-8.828-8.828c0-4.873,3.955-8.828,8.828-8.828h123.586
	c4.873,0,8.828,3.955,8.828,8.828C353.103,450.666,349.149,454.621,344.276,454.621z"/>
<g>
</g>
<g>
</g>
<g>
</g>
<g>
</g>
<g>
</g>
<g>
</g>
<g>
</g>
<g>
</g>
<g>
</g>
<g>
</g>
<g>
</g>
<g>
</g>
<g>
</g>
<g>
</g>
<g>
</g>
</svg>
