<svg height="512pt" viewBox="0 0 512 512" width="512pt" xmlns="http://www.w3.org/2000/svg"><path d="m512 256c0 141.386719-114.613281 256-256 256s-256-114.613281-256-256 114.613281-256 256-256 256 114.613281 256 256zm0 0" fill="#ff0335"/><path d="m512 256c0-34.722656-6.925781-67.824219-19.453125-98.015625l-48.269531-48.269531h-376.558594v27.15625l58.210938 55.898437c-39.074219 22.960938-63.628907 56.101563-63.628907 92.96875 0 26.921875 13.089844 51.859375 35.359375 72.296875 0 0 89.929688 90.03125 153.800782 153.90625 1.511718.027344 3.019531.058594 4.539062.058594 141.386719 0 256-114.613281 256-256zm0 0" fill="#901"/><path d="m131.199219 132.804688h21.070312v58.9375h-21.070312zm0 0" fill="#fff"/><path d="m359.726562 132.804688h21.074219v58.9375h-21.074219zm0 0" fill="#fff5cb"/><path d="m67.71875 109.714844h376.5625v27.15625h-376.5625zm0 0" fill="#00dfc1"/><path d="m256 109.71875h188.277344v27.152344h-188.277344zm0 0" fill="#00ad95"/><path d="m449.695312 285.738281c0-69.308593-86.71875-125.496093-193.695312-125.496093s-193.699219 56.1875-193.699219 125.496093c0 69.308594 86.722657 125.496094 193.699219 125.496094s193.695312-56.1875 193.695312-125.496094zm0 0" fill="#ffed97"/><path d="m449.699219 285.738281c0 69.3125-86.71875 125.492188-193.699219 125.492188v-250.992188c106.980469 0 193.699219 56.191407 193.699219 125.5zm0 0" fill="#ffe047"/><path d="m256 393.371094c-45.589844 0-88.511719-10.96875-120.863281-30.886719-33.019531-20.332031-51.203125-47.585937-51.203125-76.746094 0-29.164062 18.183594-56.417969 51.203125-76.75 32.351562-19.917969 75.273437-30.886719 120.863281-30.886719 45.585938 0 88.511719 10.96875 120.863281 30.886719 33.019531 20.332031 51.203125 47.585938 51.203125 76.75 0 29.160157-18.183594 56.414063-51.203125 76.746094-32.351562 19.917969-75.277343 30.886719-120.863281 30.886719zm0-206.445313c-90.015625 0-163.242188 44.328125-163.242188 98.8125s73.226563 98.8125 163.242188 98.8125c90.011719 0 163.242188-44.328125 163.242188-98.8125s-73.230469-98.8125-163.242188-98.8125zm0 0" fill="#ffb74f"/><g fill="#ff8900"><path d="m376.859375 208.988281c-32.351563-19.917969-75.269531-30.886719-120.863281-30.886719v8.828126c90.011718 0 163.242187 44.320312 163.242187 98.808593 0 54.480469-73.230469 98.8125-163.242187 98.8125v8.820313c45.59375 0 88.511718-10.972656 120.863281-30.890625 33.019531-20.332031 51.207031-47.582031 51.207031-76.742188 0-29.160156-18.1875-56.417969-51.207031-76.75zm0 0"/><path d="m135.585938 285.148438c0-4.242188.765624-8.441407 2.300781-12.589844 1.535156-4.144532 3.773437-7.851563 6.710937-11.117188 2.941406-3.265625 6.53125-5.914062 10.777344-7.9375 4.246094-2.023437 9.078125-3.035156 14.503906-3.035156 6.398438 0 11.933594 1.402344 16.605469 4.210938 4.667969 2.808593 8.148437 6.464843 10.433594 10.972656l-10.386719 7.152344c-.914062-1.957032-2.023438-3.609376-3.328125-4.945313-1.308594-1.339844-2.710937-2.402344-4.214844-3.183594-1.503906-.785156-3.070312-1.355469-4.703125-1.714843-1.632812-.359376-3.230468-.539063-4.800781-.539063-3.394531 0-6.351563.683594-8.867187 2.054687-2.515626 1.371094-4.605469 3.152344-6.269532 5.339844-1.667968 2.191406-2.925781 4.671875-3.773437 7.449219-.847657 2.773437-1.273438 5.535156-1.273438 8.277344 0 3.070312.488281 6.027343 1.46875 8.867187s2.367188 5.339844 4.164063 7.496094 3.953125 3.886719 6.46875 5.191406c2.511718 1.308594 5.273437 1.960938 8.277344 1.960938 1.566406 0 3.199218-.195313 4.898437-.589844 1.699219-.390625 3.316406-1.011719 4.851563-1.859375 1.535156-.847656 2.953124-1.945313 4.261718-3.285156 1.304688-1.335938 2.351563-2.953125 3.132813-4.847657l11.074219 6.367188c-1.113282 2.613281-2.695313 4.917969-4.753907 6.910156-2.058593 1.992188-4.375 3.671875-6.957031 5.042969s-5.339844 2.417969-8.277344 3.136719c-2.941406.71875-5.816406 1.078125-8.625 1.078125-4.960937 0-9.503906-1.046875-13.617187-3.136719s-7.660157-4.816406-10.628907-8.179688c-2.972656-3.363281-5.292968-7.183593-6.957031-11.464843-1.664062-4.277344-2.496093-8.636719-2.496093-13.082031zm0 0"/><path d="m225.820312 250.859375h11.953126l26.457031 69.5625h-13.914063l-6.464844-17.34375h-24.300781l-6.367187 17.34375h-13.914063zm15.578126 42.714844-9.601563-27.335938-9.992187 27.335938zm0 0"/></g><path d="m256 298.78125v21.640625h8.230469zm0 0" fill="#e67500"/><path d="m271.871094 320.421875v-69.5625h46.734375v11.855469h-33.214844v17.929687h27.632813v10.972657h-27.632813v28.804687zm0 0" fill="#e67500"/><path d="m376.410156 308.566406v11.855469h-48.300781v-69.566406h47.421875v11.855469h-33.898438v16.753906h29.292969v10.976562h-29.296875v18.125zm0 0" fill="#e67500"/></svg>