<?xml version="1.0" encoding="iso-8859-1"?>
<!-- Generator: Adobe Illustrator 19.0.0, SVG Export Plug-In . SVG Version: 6.00 Build 0)  -->
<svg version="1.1" id="Layer_1" xmlns="http://www.w3.org/2000/svg" xmlns:xlink="http://www.w3.org/1999/xlink" x="0px" y="0px"
	 viewBox="0 0 512 512" style="enable-background:new 0 0 512 512;" xml:space="preserve">
<rect x="214.375" y="8.17" style="fill:#B75548;" width="83.249" height="32.681"/>
<rect x="214.375" y="40.851" style="fill:#8E4238;" width="83.249" height="47.344"/>
<rect x="214.375" y="88.195" style="fill:#DC774E;" width="83.249" height="49.697"/>
<path style="fill:#8E4238;" d="M383.694,325.839c0,4.619-0.251,9.183-0.73,13.682l-15.197,142.641
	c-1.264,11.918-12.114,21.667-24.097,21.667H168.328c-11.983,0-22.833-9.75-24.097-21.667l-15.197-142.641
	c-0.479-4.499-0.73-9.064-0.73-13.682c0-22.495,5.817-43.618,16.014-61.974l70.057-125.974h83.249
	c0,0,70.057,125.974,70.046,125.974C377.877,282.221,383.694,303.344,383.694,325.839z M351.014,326.253c0-0.142,0-0.272,0-0.414
	c0-52.475-42.54-95.014-95.014-95.014s-95.014,42.54-95.014,95.014c0,0.142,0,0.283,0.011,0.425c0,3.246,0.185,6.547,0.534,9.793
	l9.87,92.607h169.2l9.87-92.607C350.818,332.811,351.003,329.51,351.014,326.253z"/>
<path style="fill:#EF5352;" d="M351.014,325.839c0,0.142,0,0.272,0,0.414c-15.741,0-15.741,13.247-31.493,13.247
	c-15.741,0-15.741-13.247-31.483-13.247c-15.752,0-15.752,13.247-31.493,13.247s-15.741-13.247-31.483-13.247
	S209.32,339.5,193.579,339.5c-15.752,0-15.752-13.247-31.493-13.247l-1.089,0.011c-0.011-0.142-0.011-0.283-0.011-0.425
	c0-52.475,42.54-95.014,95.014-95.014S351.014,273.364,351.014,325.839z"/>
<path style="fill:#DC774E;" d="M351.014,326.253c-0.011,3.257-0.196,6.558-0.545,9.804l-9.87,92.607H171.4l-9.87-92.607
	c-0.349-3.246-0.534-6.547-0.534-9.793l1.089-0.011c15.741,0,15.741,13.247,31.493,13.247c15.741,0,15.741-13.247,31.483-13.247
	s15.741,13.247,31.483,13.247s15.741-13.247,31.493-13.247c15.741,0,15.741,13.247,31.483,13.247
	C335.272,339.5,335.272,326.253,351.014,326.253z"/>
<g>
	<path style="fill:#700D00;" d="M374.806,259.897c-0.279-0.502-0.544-0.978-0.784-1.412l-68.226-122.707V96.363h2.723
		c4.512,0,8.17-3.657,8.17-8.17s-3.658-8.17-8.17-8.17h-2.723V8.17c0-4.513-3.658-8.17-8.17-8.17h-83.253
		c-4.512,0-8.17,3.657-8.17,8.17v71.852h-2.723c-4.512,0-8.17,3.657-8.17,8.17s3.658,8.17,8.17,8.17h2.723v39.415L137.182,259.9
		c-11.152,20.072-17.045,42.871-17.045,65.936c0,4.835,0.26,9.731,0.773,14.551l15.196,142.644
		c1.703,15.974,16.156,28.969,32.22,28.969h175.348c16.064,0,30.517-12.995,32.22-28.968l15.197-142.645
		c0.513-4.822,0.773-9.717,0.773-14.549C391.864,302.764,385.965,279.963,374.806,259.897z M289.456,16.34v16.34h-66.913V16.34
		H289.456z M222.543,49.021h25.286v2.723c0,4.513,3.658,8.17,8.17,8.17c4.512,0,8.17-3.657,8.17-8.17v-2.723h25.286v31.001h-66.913
		L222.543,49.021L222.543,49.021z M374.841,338.655L359.645,481.3c-0.829,7.785-8.143,14.36-15.971,14.36H168.325
		c-7.828,0-15.142-6.575-15.971-14.36l-15.197-142.644c-0.453-4.246-0.682-8.56-0.682-12.82c0-20.295,5.183-40.35,14.987-57.998
		l70.049-125.972c0.675-1.214,1.029-2.581,1.029-3.971V96.363h66.913v33.364h-42.402c-4.512,0-8.17,3.657-8.17,8.17
		c0,4.513,3.658,8.17,8.17,8.17h45.767c12.042,21.655,66.619,119.804,67.67,121.71c0.011,0.022,0.023,0.041,0.034,0.063
		c9.812,17.641,14.998,37.696,14.998,57.997C375.523,330.094,375.293,334.407,374.841,338.655z"/>
	<path style="fill:#700D00;" d="M255.999,222.654c-56.896,0-103.183,46.287-103.183,103.183c0,3.683,0.198,7.414,0.59,11.09
		l9.865,92.604c0.442,4.154,3.948,7.304,8.124,7.304h32.681c4.512,0,8.17-3.657,8.17-8.17c0-4.513-3.658-8.17-8.17-8.17h-25.335
		l-8.903-83.573c0.851,0.627,1.728,1.362,2.731,2.207c4.284,3.607,10.152,8.546,21.004,8.546s16.72-4.939,21.004-8.546
		c3.605-3.035,5.591-4.706,10.481-4.706c4.891,0,6.877,1.671,10.483,4.706c4.284,3.607,10.152,8.546,21.005,8.546
		c10.852,0,16.72-4.939,21.004-8.546c3.605-3.035,5.591-4.706,10.482-4.706c4.891,0,6.877,1.671,10.484,4.706
		c4.284,3.607,10.153,8.546,21.006,8.546c10.853,0,16.722-4.939,21.006-8.546c0.542-0.456,1.046-0.879,1.531-1.272l-8.802,82.637
		h-96.499c-4.512,0-8.17,3.657-8.17,8.17c0,4.513,3.658,8.17,8.17,8.17h103.846c4.177,0,7.682-3.152,8.124-7.304l9.864-92.607
		c0.371-3.485,0.563-7.021,0.583-10.521c0.001-0.05,0.008-0.099,0.008-0.15c0-0.029-0.004-0.058-0.004-0.087
		c0-0.109,0.004-0.219,0.004-0.329C359.183,268.941,312.895,222.654,255.999,222.654z M330.006,326.628
		c-3.606,3.035-5.592,4.706-10.484,4.706c-4.892,0-6.878-1.671-10.484-4.706c-4.284-3.607-10.153-8.546-21.006-8.546
		c-10.852,0-16.721,4.939-21.005,8.546c-3.605,3.035-5.591,4.706-10.481,4.706c-4.891,0-6.877-1.671-10.483-4.706
		c-4.284-3.607-10.152-8.546-21.005-8.546c-10.852,0-16.72,4.939-21.004,8.546c-3.605,3.035-5.591,4.706-10.481,4.706
		c-4.89,0-6.876-1.671-10.481-4.706c-3.194-2.69-7.273-6.117-13.639-7.688c3.53-44.67,40.982-79.946,86.544-79.946
		c45.662,0,83.179,35.431,86.566,80.242C336.815,320.911,333.016,324.095,330.006,326.628z"/>
</g>
<g>
</g>
<g>
</g>
<g>
</g>
<g>
</g>
<g>
</g>
<g>
</g>
<g>
</g>
<g>
</g>
<g>
</g>
<g>
</g>
<g>
</g>
<g>
</g>
<g>
</g>
<g>
</g>
<g>
</g>
</svg>
